# xmcd
#
# Track frame offsets:
#	150
#	24883
#	40132
#	59463
#	76617
#	100919
#	118349
#	136841
#	149661
#
# Disc length: 2075 seconds
#
# Revision: 1
# Processed by: cddbd v1.5.2PL0 Copyright (c) Steve Scherf et al.
# Submitted via: audiograbber 1.83.01
#
DISCID=74081909
DTITLE=Chet Atkins  - Work It Out With Chet Atkins C.G.P
DYEAR=1983
DGENRE=Country
TTITLE0=Warm Up Medley: Grandfather's Clock - Jubilo - Swanee River/Humoresque 
TTITLE0=Climbing Up The Golden Stairs - Goodnight Irene
TTITLE1=Walk Me Home
TTITLE2=Strolling Medley: Bicycle Built For Two - Farewell Blues - Bye Bye Blue
TTITLE2=s
TTITLE3=Bourree
TTITLE4=Streakin' Medley: Walk Don't Run - The Chase - The Streak - In The Good
TTITLE4=Old Summertime
TTITLE5=Tara Theme
TTITLE6=Cross Country Medley: Take Me Home, Country Roads - Jersey Bounce - On 
TTITLE6=The Street Where You Live - Physical - The Army Air Corps Song - Take M
TTITLE6=e Home, Country Roads
TTITLE7=Run Don't Walk
TTITLE8=Harlequin Romance
EXTD=
EXTT0=
EXTT1=
EXTT2=
EXTT3=
EXTT4=
EXTT5=
EXTT6=
EXTT7=
EXTT8=
PLAYORDER=
